<?xml version="1.0" encoding="utf-8"?>
<!-- Generator: Adobe Illustrator 19.1.0, SVG Export Plug-In . SVG Version: 6.00 Build 0)  -->
<svg version="1.1" id="Capa_1" xmlns="http://www.w3.org/2000/svg" xmlns:xlink="http://www.w3.org/1999/xlink" x="0px" y="0px"
	 viewBox="0 0 433 99" style="enable-background:new 0 0 433 99;" xml:space="preserve">
<style type="text/css">
	.Arqueado:_x0020_verde{fill:url(#SVGID_1_);stroke:#FFFFFF;stroke-width:0.25;stroke-miterlimit:1;}
	.st0{fill:url(#SVGID_2_);stroke:#009CDD;stroke-width:1.1339;}
	.st1{fill:#FFFFFF;stroke:#FFFFFF;stroke-width:0.8696;}
	.st2{fill:#009CDD;}
	.st3{fill:#9B9C9E;}
</style>
<linearGradient id="SVGID_1_" gradientUnits="userSpaceOnUse" x1="-82" y1="459" x2="-81.2929" y2="458.2929">
	<stop  offset="0" style="stop-color:#5E9D3B"/>
	<stop  offset="0.9831" style="stop-color:#2A3A23"/>
</linearGradient>
<linearGradient id="SVGID_2_" gradientUnits="userSpaceOnUse" x1="24.7502" y1="23.4641" x2="64.3041" y2="65.4525">
	<stop  offset="0" style="stop-color:#009CDD"/>
	<stop  offset="1" style="stop-color:#0077B5"/>
</linearGradient>
<path class="st0" d="M83.2,44.6c0-19.9-17.1-36-38.2-36S6.7,24.7,6.7,44.6c0,19.9,15.6,35.9,36.7,35.9c0.2,0-0.2,0,0,0
	c0.5,0.6-2.2,6.7-4.3,8.9c0,0,44.1-10.9,44.1-43.4C83.2,46,83.2,45,83.2,44.6z"/>
<g>
	<path class="st1" d="M22.1,35h2.3v7.6h0.1c0.5-1.4,1.8-2.1,4.4-2.1h3.5c5.6,0,7.3,1.6,7.3,6V49c0,4.8-2.9,5.8-7.2,5.8h-3.2
		c-2.4,0-4.3-0.7-5-2.4h-0.1v2.2h-2.2V35z M37.4,46.3c0-3.2-1.6-3.8-4.8-3.8h-3.1c-3.1,0-5.1,0.5-5.1,3.8v2.6c0,2.5,1.1,4,4.6,4h3.8
		c3.8,0,4.6-1.3,4.6-3.9V46.3z"/>
	<path class="st1" d="M41.9,40.8H44v1.6h0.1c1-1.4,2.3-1.8,4.6-1.8h3.8c2.1,0,3.7,0.8,4.5,2.5c0.9-1.9,2.7-2.5,5.1-2.5h2.8
		c3.7,0,6,1.6,6,4.8v9.2h-2.3v-9c0-1.6-0.7-3.1-4.4-3.1h-1.6c-4.2,0-4.8,1.7-4.8,3.9v8.2h-2.3v-8.3c0-2.7-0.8-3.8-4.5-3.8h-2.3
		c-3,0-4.3,1.2-4.3,3.5v8.6h-2.3V40.8z"/>
</g>
<g>
	<path class="st2" d="M100.5,9.4h3.9v12.7h0.1c0.8-2.4,2.9-3.4,7.3-3.4h5.9c9.3,0,12.2,2.6,12.2,10v4.1c0,7.9-4.9,9.7-11.9,9.7h-5.4
		c-4.1,0-7.2-1.2-8.3-4h-0.1V42h-3.6V9.4z M126,28.1c0-5.3-2.7-6.3-8-6.3h-5.2c-5.2,0-8.4,0.9-8.4,6.4v4.4c0,4.2,1.8,6.6,7.6,6.6
		h6.3c6.3,0,7.7-2.1,7.7-6.6V28.1z"/>
	<path class="st2" d="M138.9,9.4h3.9V42h-3.9V9.4z"/>
	<path class="st2" d="M176.6,38L176.6,38c-1.5,3.6-4.5,4.3-9.4,4.3h-5.8c-7.2,0-9.5-3.6-9.5-7.8V19h3.9v14.6c0,3.4,0.9,5.6,8.5,5.6
		h1c9.1,0,11.1-1.7,11.1-7.1V19h3.9v23h-3.6V38z"/>
	<path class="st2" d="M189.3,27.9c0-8.3,5.8-9.3,11.3-9.3h6.2c6.9,0,11.9,1.8,11.9,10v2.6h-25.5v1.4c0,5.2,2.5,6.6,9.3,6.6h5.3
		c4.9,0,6.8-0.6,7.1-4.1h3.9v0.5c0,5.3-4.4,6.8-11.6,6.8h-7c-5,0-10.8-0.9-10.8-9.4V27.9z M214.8,26.5c0-2.3-1.8-4.7-8.1-4.7h-5.7
		c-6.1,0-7.6,1-7.9,6.2h21.7V26.5z"/>
	<path class="st3" d="M100.5,57.9h3.6v2.7h0.1c1.6-2.4,3.8-3.1,7.7-3.1h6.3c3.5,0,6.2,1.4,7.4,4.2c1.4-3.1,4.5-4.2,8.5-4.2h4.7
		c6.2,0,10,2.7,10,7.9v15.4h-3.9V65.9c0-2.7-1.2-5.2-7.3-5.2h-2.7c-7,0-7.9,2.9-7.9,6.6v13.6h-3.9V66.9c0-4.5-1.4-6.3-7.6-6.3h-3.9
		c-5,0-7.2,2.1-7.2,5.8v14.4h-3.9V57.9z"/>
	<path class="st3" d="M157.8,66.8c0-8.3,5.8-9.3,11.3-9.3h6.2c6.9,0,11.9,1.8,11.9,10V70h-25.5v1.4c0,5.2,2.5,6.6,9.3,6.6h5.3
		c4.9,0,6.8-0.6,7.1-4.1h3.9v0.5c0,5.3-4.4,6.8-11.6,6.8h-7c-5,0-10.8-0.9-10.8-9.4V66.8z M183.4,65.3c0-2.3-1.8-4.7-8.1-4.7h-5.7
		c-6.1,0-7.6,1-7.9,6.2h21.7V65.3z"/>
	<path class="st3" d="M196.3,72.9h3.6V74c0,2.8,1.5,4,5.4,4h8.3c5.8,0,7.7-0.2,7.7-3.6v-0.2c0-2.2-0.6-3.4-5.3-3.4h-11.9
		c-5.4,0-7.5-1.8-7.5-6.1v-1.4c0-3.7,2.1-5.8,11.7-5.8h5.9c8.7,0,10,2.5,10,5.8v1.2h-3.6v-0.2c0-3.5-2.3-3.6-6.6-3.6h-6.8
		c-5.5,0-6.8,0.5-6.8,3.2v0.9c0,1.9,0.6,3,4.7,3h10.2c5.8,0,9.8,0.6,9.8,6.8v0.1c0,6.4-5.9,6.7-10.7,6.7h-7.1
		c-5.7,0-11.1,0-11.1-6.9V72.9z"/>
	<path class="st3" d="M234,72.9h3.6V74c0,2.8,1.5,4,5.4,4h8.3c5.8,0,7.7-0.2,7.7-3.6v-0.2c0-2.2-0.6-3.4-5.3-3.4h-11.9
		c-5.4,0-7.5-1.8-7.5-6.1v-1.4c0-3.7,2.1-5.8,11.7-5.8h5.9c8.7,0,10,2.5,10,5.8v1.2h-3.6v-0.2c0-3.5-2.3-3.6-6.6-3.6H245
		c-5.5,0-6.8,0.5-6.8,3.2v0.9c0,1.9,0.6,3,4.7,3h10.2c5.8,0,9.8,0.6,9.8,6.8v0.1c0,6.4-5.9,6.7-10.7,6.7h-7.1
		c-5.7,0-11.1,0-11.1-6.9V72.9z"/>
	<path class="st3" d="M296.6,78.5L296.6,78.5c-1.1,2.1-2.3,2.7-8.3,2.7h-9.3c-5.9,0-7.4-2.6-7.4-6.9v-1.5c0-5.2,3.7-5.9,10.4-5.9
		h6.2c5,0,6.8,0.5,8.2,2.7h0.1v-4.3c0-4.1-2.6-4.7-8.6-4.7h-5.7c-4.9,0-5.8,1.2-5.8,3.1v0.8h-3.9v-1.1c0-4.2,2.7-5.9,9.6-5.9h6.1
		c7.2,0,12.1,1.1,12.1,7.9v15.4h-3.9V78.5z M296.6,73.6c0-3.2-2.8-3.6-8.7-3.6h-5.9c-5,0-6.4,0.7-6.4,3.6v0.7c0,2.6,0.9,3.6,6.2,3.6
		h5.1c7,0,9.7-0.5,9.7-3.4V73.6z"/>
	<path class="st3" d="M338.9,80.8c0,6.9-6.1,8.3-10.9,8.3h-8.7c-7.1,0-9-3.9-9-6.8v-0.8h3.6v0.6c0,3,3.1,3.8,6.7,3.8h3.8
		c7.7,0,10.7-0.1,10.7-6.3v-3.4h-0.1c-0.8,2.2-2.4,3.6-7.8,3.6h-8c-6.4,0-9.6-3.3-9.6-9.2v-3.8c0-8.3,6-9.3,10.4-9.3h8.2
		c2.9,0,5.9,0.7,7.1,4.5h0.1v-4.1h3.6V80.8z M335,67.7c0.1-4.3-1.4-7-6.9-7h-7.9c-4,0-6.8,1.1-6.8,4.9v4.2c0,5.3,1.8,6.9,6.6,6.9
		h7.5c5.5,0,7.6-2.2,7.6-6.2V67.7z"/>
	<path class="st3" d="M348,48.2h3.9v4.2H348V48.2z M348,57.9h3.9v23H348V57.9z"/>
	<path class="st3" d="M361,57.9h3.6v4h0.1c1.4-3.6,4.5-4.3,9.3-4.3h5.8c7.3,0,9.5,3.6,9.5,7.8v15.5h-3.9V66.2c0-3.4-0.9-5.6-8.5-5.6
		h-1c-9.1,0-11.1,1.7-11.1,7.1v13.1H361V57.9z"/>
	<path class="st3" d="M427.7,80.8c0,6.9-6.1,8.3-10.9,8.3h-8.7c-7.1,0-9-3.9-9-6.8v-0.8h3.6v0.6c0,3,3.1,3.8,6.7,3.8h3.8
		c7.7,0,10.7-0.1,10.7-6.3v-3.4h-0.1c-0.8,2.2-2.4,3.6-7.8,3.6h-8c-6.4,0-9.6-3.3-9.6-9.2v-3.8c0-8.3,6-9.3,10.4-9.3h8.2
		c2.9,0,5.9,0.7,7.1,4.5h0.1v-4.1h3.6V80.8z M423.8,67.7c0.1-4.3-1.4-7-6.9-7h-7.9c-4,0-6.8,1.1-6.8,4.9v4.2c0,5.3,1.8,6.9,6.6,6.9
		h7.5c5.5,0,7.6-2.2,7.6-6.2V67.7z"/>
</g>
</svg>
